<mxfile host="app.diagrams.net" agent="Mozilla/5.0 (Windows NT 10.0; Win64; x64) AppleWebKit/537.36 (KHTML, like Gecko) Chrome/128.0.0.0 Safari/537.36" version="24.7.8">
  <diagram name="Page-1" id="2tC8VmPLjtLr1J6G5vQs">
    <mxGraphModel dx="1449" dy="1289" grid="1" gridSize="10" guides="1" tooltips="1" connect="1" arrows="1" fold="1" page="1" pageScale="1" pageWidth="850" pageHeight="1100" math="0" shadow="0">
      <root>
        <mxCell id="0" />
        <mxCell id="1" parent="0" />
        <mxCell id="pvtO3db3lYFqt5PCmuNX-81" value="Happens-before" style="rounded=1;whiteSpace=wrap;html=1;fontSize=14;" vertex="1" parent="1">
          <mxGeometry x="365.25" y="790" width="150" height="30" as="geometry" />
        </mxCell>
        <mxCell id="pvtO3db3lYFqt5PCmuNX-82" value="Program order&lt;div&gt;(within a single thread)&lt;/div&gt;" style="rounded=1;whiteSpace=wrap;html=1;fontSize=14;" vertex="1" parent="1">
          <mxGeometry x="286.25" y="840" width="150" height="40" as="geometry" />
        </mxCell>
        <mxCell id="pvtO3db3lYFqt5PCmuNX-83" value="&lt;b&gt;Synchronizes-with&lt;/b&gt;&lt;div&gt;(Between threads)&lt;/div&gt;" style="rounded=1;whiteSpace=wrap;html=1;fontSize=14;" vertex="1" parent="1">
          <mxGeometry x="466.25" y="840" width="150" height="40" as="geometry" />
        </mxCell>
        <mxCell id="pvtO3db3lYFqt5PCmuNX-84" value="C++11 atomic types" style="rounded=1;whiteSpace=wrap;html=1;fontSize=14;" vertex="1" parent="1">
          <mxGeometry x="200" y="970" width="130" height="40" as="geometry" />
        </mxCell>
        <mxCell id="pvtO3db3lYFqt5PCmuNX-85" value="Acquire &amp;amp;release fences" style="rounded=1;whiteSpace=wrap;html=1;fontSize=14;" vertex="1" parent="1">
          <mxGeometry x="352.75" y="970" width="162.5" height="40" as="geometry" />
        </mxCell>
        <mxCell id="pvtO3db3lYFqt5PCmuNX-86" value="volatile types in java" style="rounded=1;whiteSpace=wrap;html=1;fontSize=14;" vertex="1" parent="1">
          <mxGeometry x="530" y="970" width="135.25" height="40" as="geometry" />
        </mxCell>
        <mxCell id="pvtO3db3lYFqt5PCmuNX-87" value="volatile types in microsoft C/C++" style="rounded=1;whiteSpace=wrap;html=1;fontSize=14;" vertex="1" parent="1">
          <mxGeometry x="687.75" y="970" width="150" height="40" as="geometry" />
        </mxCell>
        <mxCell id="pvtO3db3lYFqt5PCmuNX-88" value="Mutex lock/unlock" style="rounded=1;whiteSpace=wrap;html=1;fontSize=14;" vertex="1" parent="1">
          <mxGeometry x="206.25" y="910" width="150" height="30" as="geometry" />
        </mxCell>
        <mxCell id="pvtO3db3lYFqt5PCmuNX-89" value="Thread create/join" style="rounded=1;whiteSpace=wrap;html=1;fontSize=14;" vertex="1" parent="1">
          <mxGeometry x="386.25" y="910" width="150" height="30" as="geometry" />
        </mxCell>
        <mxCell id="pvtO3db3lYFqt5PCmuNX-90" value="Acquire&amp;amp; release semantics" style="rounded=1;whiteSpace=wrap;html=1;fontSize=14;" vertex="1" parent="1">
          <mxGeometry x="566.25" y="910" width="183.75" height="30" as="geometry" />
        </mxCell>
        <mxCell id="pvtO3db3lYFqt5PCmuNX-91" value="C++ 11 fences" style="rounded=1;whiteSpace=wrap;html=1;fontSize=14;" vertex="1" parent="1">
          <mxGeometry x="276.25" y="1040" width="150" height="40" as="geometry" />
        </mxCell>
        <mxCell id="pvtO3db3lYFqt5PCmuNX-92" value="Mintomic fences" style="rounded=1;whiteSpace=wrap;html=1;fontSize=14;" vertex="1" parent="1">
          <mxGeometry x="439" y="1040" width="150" height="40" as="geometry" />
        </mxCell>
        <mxCell id="pvtO3db3lYFqt5PCmuNX-93" value="Platform-specific memoryfences" style="rounded=1;whiteSpace=wrap;html=1;fontSize=14;" vertex="1" parent="1">
          <mxGeometry x="611.5" y="1040" width="150" height="40" as="geometry" />
        </mxCell>
        <mxCell id="pvtO3db3lYFqt5PCmuNX-95" value="" style="edgeStyle=elbowEdgeStyle;elbow=vertical;endArrow=none;html=1;curved=0;rounded=0;endSize=8;startSize=8;entryX=0.5;entryY=0;entryDx=0;entryDy=0;endFill=0;exitX=0.5;exitY=1;exitDx=0;exitDy=0;strokeWidth=2;" edge="1" parent="1" source="pvtO3db3lYFqt5PCmuNX-81" target="pvtO3db3lYFqt5PCmuNX-82">
          <mxGeometry width="50" height="50" relative="1" as="geometry">
            <mxPoint x="440" y="830" as="sourcePoint" />
            <mxPoint x="490" y="780" as="targetPoint" />
          </mxGeometry>
        </mxCell>
        <mxCell id="pvtO3db3lYFqt5PCmuNX-96" value="" style="edgeStyle=elbowEdgeStyle;elbow=vertical;endArrow=none;html=1;curved=0;rounded=0;endSize=8;startSize=8;entryX=0.5;entryY=0;entryDx=0;entryDy=0;endFill=0;strokeWidth=2;" edge="1" parent="1" target="pvtO3db3lYFqt5PCmuNX-83">
          <mxGeometry width="50" height="50" relative="1" as="geometry">
            <mxPoint x="440" y="820" as="sourcePoint" />
            <mxPoint x="371" y="860" as="targetPoint" />
          </mxGeometry>
        </mxCell>
        <mxCell id="pvtO3db3lYFqt5PCmuNX-97" value="" style="edgeStyle=elbowEdgeStyle;elbow=vertical;endArrow=none;html=1;curved=0;rounded=0;endSize=8;startSize=8;entryX=0.48;entryY=-0.014;entryDx=0;entryDy=0;endFill=0;exitX=0.5;exitY=1;exitDx=0;exitDy=0;entryPerimeter=0;strokeWidth=2;" edge="1" parent="1" source="pvtO3db3lYFqt5PCmuNX-83" target="pvtO3db3lYFqt5PCmuNX-88">
          <mxGeometry width="50" height="50" relative="1" as="geometry">
            <mxPoint x="460" y="850" as="sourcePoint" />
            <mxPoint x="381" y="870" as="targetPoint" />
          </mxGeometry>
        </mxCell>
        <mxCell id="pvtO3db3lYFqt5PCmuNX-98" value="" style="edgeStyle=elbowEdgeStyle;elbow=vertical;endArrow=none;html=1;curved=0;rounded=0;endSize=8;startSize=8;entryX=0.5;entryY=0;entryDx=0;entryDy=0;endFill=0;exitX=0.5;exitY=1;exitDx=0;exitDy=0;strokeWidth=2;" edge="1" parent="1" source="pvtO3db3lYFqt5PCmuNX-83" target="pvtO3db3lYFqt5PCmuNX-89">
          <mxGeometry width="50" height="50" relative="1" as="geometry">
            <mxPoint x="470" y="860" as="sourcePoint" />
            <mxPoint x="391" y="880" as="targetPoint" />
          </mxGeometry>
        </mxCell>
        <mxCell id="pvtO3db3lYFqt5PCmuNX-99" value="" style="edgeStyle=elbowEdgeStyle;elbow=vertical;endArrow=none;html=1;curved=0;rounded=0;endSize=8;startSize=8;entryX=0.5;entryY=0;entryDx=0;entryDy=0;endFill=0;exitX=0.5;exitY=1;exitDx=0;exitDy=0;strokeWidth=2;" edge="1" parent="1" source="pvtO3db3lYFqt5PCmuNX-83" target="pvtO3db3lYFqt5PCmuNX-90">
          <mxGeometry width="50" height="50" relative="1" as="geometry">
            <mxPoint x="480" y="870" as="sourcePoint" />
            <mxPoint x="401" y="890" as="targetPoint" />
          </mxGeometry>
        </mxCell>
        <mxCell id="pvtO3db3lYFqt5PCmuNX-100" value="" style="edgeStyle=elbowEdgeStyle;elbow=vertical;endArrow=none;html=1;curved=0;rounded=0;endSize=8;startSize=8;entryX=0.5;entryY=0;entryDx=0;entryDy=0;endFill=0;exitX=0.5;exitY=1;exitDx=0;exitDy=0;strokeWidth=2;" edge="1" parent="1" source="pvtO3db3lYFqt5PCmuNX-90" target="pvtO3db3lYFqt5PCmuNX-84">
          <mxGeometry width="50" height="50" relative="1" as="geometry">
            <mxPoint x="490" y="880" as="sourcePoint" />
            <mxPoint x="411" y="900" as="targetPoint" />
          </mxGeometry>
        </mxCell>
        <mxCell id="pvtO3db3lYFqt5PCmuNX-101" value="" style="edgeStyle=elbowEdgeStyle;elbow=vertical;endArrow=none;html=1;curved=0;rounded=0;endSize=8;startSize=8;entryX=0.5;entryY=0;entryDx=0;entryDy=0;endFill=0;exitX=0.5;exitY=1;exitDx=0;exitDy=0;strokeWidth=2;" edge="1" parent="1" source="pvtO3db3lYFqt5PCmuNX-90" target="pvtO3db3lYFqt5PCmuNX-85">
          <mxGeometry width="50" height="50" relative="1" as="geometry">
            <mxPoint x="500" y="890" as="sourcePoint" />
            <mxPoint x="421" y="910" as="targetPoint" />
          </mxGeometry>
        </mxCell>
        <mxCell id="pvtO3db3lYFqt5PCmuNX-102" value="" style="edgeStyle=elbowEdgeStyle;elbow=vertical;endArrow=none;html=1;curved=0;rounded=0;endSize=8;startSize=8;entryX=0.5;entryY=0;entryDx=0;entryDy=0;endFill=0;exitX=0.5;exitY=1;exitDx=0;exitDy=0;strokeWidth=2;" edge="1" parent="1" source="pvtO3db3lYFqt5PCmuNX-90" target="pvtO3db3lYFqt5PCmuNX-86">
          <mxGeometry width="50" height="50" relative="1" as="geometry">
            <mxPoint x="510" y="900" as="sourcePoint" />
            <mxPoint x="431" y="920" as="targetPoint" />
          </mxGeometry>
        </mxCell>
        <mxCell id="pvtO3db3lYFqt5PCmuNX-103" value="" style="edgeStyle=elbowEdgeStyle;elbow=vertical;endArrow=none;html=1;curved=0;rounded=0;endSize=8;startSize=8;entryX=0.5;entryY=0;entryDx=0;entryDy=0;endFill=0;exitX=0.5;exitY=1;exitDx=0;exitDy=0;strokeWidth=2;" edge="1" parent="1" source="pvtO3db3lYFqt5PCmuNX-90" target="pvtO3db3lYFqt5PCmuNX-87">
          <mxGeometry width="50" height="50" relative="1" as="geometry">
            <mxPoint x="520" y="910" as="sourcePoint" />
            <mxPoint x="441" y="930" as="targetPoint" />
          </mxGeometry>
        </mxCell>
        <mxCell id="pvtO3db3lYFqt5PCmuNX-104" value="" style="edgeStyle=elbowEdgeStyle;elbow=vertical;endArrow=none;html=1;curved=0;rounded=0;endSize=8;startSize=8;entryX=0.5;entryY=0;entryDx=0;entryDy=0;endFill=0;exitX=0.5;exitY=1;exitDx=0;exitDy=0;strokeWidth=2;" edge="1" parent="1" source="pvtO3db3lYFqt5PCmuNX-85" target="pvtO3db3lYFqt5PCmuNX-91">
          <mxGeometry width="50" height="50" relative="1" as="geometry">
            <mxPoint x="530" y="920" as="sourcePoint" />
            <mxPoint x="451" y="940" as="targetPoint" />
          </mxGeometry>
        </mxCell>
        <mxCell id="pvtO3db3lYFqt5PCmuNX-105" value="" style="edgeStyle=elbowEdgeStyle;elbow=vertical;endArrow=none;html=1;curved=0;rounded=0;endSize=8;startSize=8;entryX=0.5;entryY=1;entryDx=0;entryDy=0;endFill=0;exitX=0.5;exitY=0;exitDx=0;exitDy=0;strokeWidth=2;" edge="1" parent="1" source="pvtO3db3lYFqt5PCmuNX-92" target="pvtO3db3lYFqt5PCmuNX-85">
          <mxGeometry width="50" height="50" relative="1" as="geometry">
            <mxPoint x="540" y="930" as="sourcePoint" />
            <mxPoint x="461" y="950" as="targetPoint" />
          </mxGeometry>
        </mxCell>
        <mxCell id="pvtO3db3lYFqt5PCmuNX-106" value="" style="edgeStyle=elbowEdgeStyle;elbow=vertical;endArrow=none;html=1;curved=0;rounded=0;endSize=8;startSize=8;entryX=0.5;entryY=1;entryDx=0;entryDy=0;endFill=0;exitX=0.5;exitY=0;exitDx=0;exitDy=0;strokeWidth=2;" edge="1" parent="1" source="pvtO3db3lYFqt5PCmuNX-93" target="pvtO3db3lYFqt5PCmuNX-85">
          <mxGeometry width="50" height="50" relative="1" as="geometry">
            <mxPoint x="550" y="940" as="sourcePoint" />
            <mxPoint x="471" y="960" as="targetPoint" />
          </mxGeometry>
        </mxCell>
        <mxCell id="pvtO3db3lYFqt5PCmuNX-108" value="Ways to achieve a&amp;nbsp;&lt;div&gt;happens-before relationship&lt;/div&gt;" style="text;html=1;align=center;verticalAlign=middle;whiteSpace=wrap;rounded=0;fontSize=14;" vertex="1" parent="1">
          <mxGeometry x="10" y="850" width="190" height="30" as="geometry" />
        </mxCell>
        <mxCell id="pvtO3db3lYFqt5PCmuNX-109" value="Ways to achieve a&amp;nbsp;&lt;div&gt;synchronizes-with relationship&lt;/div&gt;" style="text;html=1;align=center;verticalAlign=middle;whiteSpace=wrap;rounded=0;fontSize=14;" vertex="1" parent="1">
          <mxGeometry x="10" y="910" width="190" height="30" as="geometry" />
        </mxCell>
        <mxCell id="pvtO3db3lYFqt5PCmuNX-110" value="Constructs which provide&lt;div&gt;acquire &amp;amp;release semantics&lt;/div&gt;" style="text;html=1;align=center;verticalAlign=middle;whiteSpace=wrap;rounded=0;fontSize=14;" vertex="1" parent="1">
          <mxGeometry y="970" width="190" height="30" as="geometry" />
        </mxCell>
        <mxCell id="pvtO3db3lYFqt5PCmuNX-111" value="APIs which expose&lt;div&gt;acquire &amp;amp; release fences&lt;/div&gt;" style="text;html=1;align=center;verticalAlign=middle;whiteSpace=wrap;rounded=0;fontSize=14;" vertex="1" parent="1">
          <mxGeometry x="10" y="1040" width="190" height="30" as="geometry" />
        </mxCell>
      </root>
    </mxGraphModel>
  </diagram>
</mxfile>
